<svg xmlns="http://www.w3.org/2000/svg" viewBox="0 0 575 575"><defs><style>.cls-1{fill:#5a189a;}.cls-2{fill:#079191;}.cls-3{fill:#0bd6d6;}.cls-4{fill:#10fcf5;}.cls-5{fill:#dae54c;opacity:0.3;}.cls-6{fill:#ff9e00;}</style></defs><g id="Layer_2" data-name="Layer 2"><g id="Layer_1-2" data-name="Layer 1"><rect class="cls-1" width="575" height="575"/><circle class="cls-2" cx="252.76" cy="356.77" r="168.93" transform="translate(-178.24 283.23) rotate(-45)"/><path class="cls-3" d="M245.33,228c-25.36,2.5-41.11,12.64-61.21,27.48-16.88,12.47-31,30.29-48.75,40.25-12.1,6.8-29.94,17.23-46.17,18.94A168.14,168.14,0,0,0,84,349.11c35.08-15.46,80.82-35.26,101.58-66.62,13.37-20.19,30.4-30,54.13-35.17,20.47-4.45,39.23.74,59.84,0,23.87-.89,43.52-7.71,64.88-16.59a169.8,169.8,0,0,0-25.51-18.58c-9.74,6.69-30,13-34.59,13.69C285.28,228.86,264.5,226.13,245.33,228Z"/><path class="cls-3" d="M310.85,373.88c-43.39,19.81-87.84,34.3-132.53,50.32-22.06,7.91-44.68,18.55-67.59,24.84a166.88,166.88,0,0,0,12.92,17.41,220.7,220.7,0,0,1,48.06-21.91c35.59-11.41,69.72-25.13,105.16-37.43,32.34-11.23,64.38-24.3,96.06-37.42q20.86-8.64,41.79-17c2.1-.83,4.36-1.93,6.7-3.08a168.66,168.66,0,0,0-3.69-28.28C388.23,346.41,344.09,358.71,310.85,373.88Z"/><path class="cls-3" d="M341.92,454.26c-27,14-56.26,23.19-83.81,34.77a157.25,157.25,0,0,0-34.54,20.35c-3,2.28-8.89,7.2-12.43,11.83a168.27,168.27,0,0,0,19.18,3.67c4.63-3.86,8.94-8.43,13-10.94,11.39-7,24.87-10.65,36.87-17.25,29.28-16.13,60.32-27.67,90.09-43.36,9.41-5,20.47-12.72,31.15-15.77a168.2,168.2,0,0,0,11.76-27.36,62.41,62.41,0,0,0-6,2.29C384,423.41,364.9,442.32,341.92,454.26Z"/><path class="cls-3" d="M353.57,393.86c-16.25,8.69-32.73,12.19-49.49,18.89-20.07,8-39.6,17.57-60.7,22.47-26.7,6.19-49.72,19.38-75.1,29.41-8.23,3.25-19.6,10.27-31.06,16.1a169.21,169.21,0,0,0,39.28,27.51c8.27-5.55,22.79-10.49,30-14.39,20.41-11,41.71-20.13,61.91-31.37,30.27-16.85,60-33.92,91.71-47.73,14.78-6.43,29.4-13.61,44.73-18.61,2.63-.86,7.88-2.71,13.15-4a169.41,169.41,0,0,0,3.56-32.48c-4,2.23-7.91,4.2-10.8,5.8C392.17,375.8,372.38,383.81,353.57,393.86Z"/><path class="cls-3" d="M381.14,463.72c-14.05,7.17-28.09,14.3-42,21.94-22.66,12.42-44,25.67-65.4,39.4A168.79,168.79,0,0,0,385.6,461.7C384.06,462.33,382.57,463,381.14,463.72Z"/><path class="cls-3" d="M266.86,364.91c34.8-8.09,64.7-24.18,96.37-40.54,8-4.14,30.53-17.56,49-22.67a168.49,168.49,0,0,0-28.92-51.43c-10.84,3.43-22.31,6-31.38,10.31C323.77,274,317.27,301,302.27,326.64c-11.6,19.84-30.42,36.43-54.67,32.88-21.65-3.17-39.16-14.71-62.09-12.47-28.73,2.81-57.18,18.68-82.44,31.74-4.32,2.24-10.09,5.8-16.49,9.56a167.08,167.08,0,0,0,10.71,35.44c17.94-9.75,39-13.56,58.49-19.21C193.43,393.66,228.68,373.77,266.86,364.91Z"/><path class="cls-3" d="M99.41,287.22c23.91-3.87,40.4-6.67,56.34-26.33,33.51-41.34,82.79-45.06,132.66-45.34,7.7,0,21.91-7.57,34.19-12A169.08,169.08,0,0,0,99,287.29Z"/><path class="cls-4" d="M371.89,237.33c-2.78-2.22-49.76,17.82-52.93,18.64-26,6.68-51.24-3-77.09,4.64-19.08,5.65-30.34,18.72-42.73,33.67-3.75,4.54-6.27,10.11-10.24,14.69-7.31,8.47-18.66,14.46-28,20.5-5.91,3.83-12.28,5.28-18.63,8-7.83,3.33-15.36,7.68-23.14,11.24-9.54,4.36-22.07,10.05-29.93,15.11L85.7,365.3c-5.73,10.35,12.29,1.38,16.14-.51,11-5.4,22-11.27,33.62-15.48a279,279,0,0,0,32.54-14c8.05-4.11,16.26-8.09,24.37-12,4.95-2.37,10.6-5.24,16.27-4.45,10.49,1.48,16.16,12,27.1,12.63,10.5.57,16.74-3.62,22.65-11.7,5.27-7.2,8.78-14.3,2.79-21.5-6.4-7.72-12.12-11-22.3-8.13-7.82,2.21-17.95,12.69-8.95,19.55,2.08,1.58,9,3.91,11,1,2.24-3.24-4.36-6.85,2.51-8.48,4.16-1,8.36,2.48,8.07,6.56s-4.48,6.63-7.57,8.67a16.78,16.78,0,0,1-22.55-3.25c-14.36-17.13,2-34.6,19-40.56,19.53-6.84,41.77-.84,61.86-5,8.73-1.83,17.4-5,25.8-7.81C331.06,259.87,376.88,241.31,371.89,237.33Z"/><path class="cls-4" d="M298.46,293.73c-2-8.34-9.58-12-17.26-13.06-4.34-.59-24.88-.82-15.6,6.93,6.71,5.6,16.5-1,18.11,11.19a34.57,34.57,0,0,1-5.15,23.56c-10.36,15.77-30.11,16.14-46.74,12.09-17.39-4.22-36.8-6-53.19,1.52-18.28,8.39-37,17.48-56.65,21.39-4,.8-21.6,1.57-23.19,5.42C95.54,370.62,190,336.58,190,336.58c10.21-2.94,23.14-1.11,33.76,2.15s24,8,35.26,7.43C281.91,345,304.11,317.1,298.46,293.73Z"/><path class="cls-4" d="M411.19,312.4c-4.92-2-17.51,5.94-21.27,8.93a131.28,131.28,0,0,1-32.2,18.25C312,358.17,269.17,387.4,220.25,397.17c-15.16,3-29.81,8.5-44.74,12.47-10.84,2.88-21.28,6.63-31.85,10.22-12.63,4.28-25.2,8.79-37.81,13l1,3.53c.81,1,1.86.13,3.65-.38,8-2.3,15.41-5.73,23.56-7.67a334.87,334.87,0,0,0,35.77-11.1c20-7.23,40.83-12.47,61-17,18.58-4.2,33.94-14,51.39-20.77,9.51-3.67,18.36-8.59,27.71-13,12.63-5.93,26.44-10,38.7-16.62,15.57-8.37,31.34-16.43,47.35-24.42C399,323.86,418.9,315.61,411.19,312.4Z"/><path class="cls-4" d="M339.77,407.74C301.16,420.54,263,435,225.13,450.33,207,457.66,188.21,463.26,171,472.26c-4.29,2.24-9.08,4-11.81,8.29-2.4,3.75-1.2,7.27-1.39,10.21l6.55,8.57c2.46,6.58,14.2-.53,17.52-3.16,10.69-8.47,22.77-17.47,35.23-23.43,9.84-4.71,20.83-6.5,30.47-11.68,12-6.43,23.26-14.4,35.14-21.1,15.19-8.56,31.68-14.65,47.58-21.73,4.3-1.91,82.41-34.65,82-39.83C406.14,380.25,346,405.69,339.77,407.74Z"/><path class="cls-5" d="M251.12,526.49c93.69,0,169.64-75.85,169.64-169.41,0-78.78-53.83-145-126.77-164-1,6.32-.06,13.86,3.6,22.6,13.62,32.54,42.09,58.76,56.42,90.89C384.06,374,376.25,453,294.73,474.39c-33,8.68-73.63,3.29-100.69-17-31.18-23.36-25.94-59.7-20-93.87,5.86-34,33.3-87.86,15.47-122-4.72-9.05-22.77-28.8-43.17-17.63A169,169,0,0,0,81.47,357.08C81.47,450.64,157.43,526.49,251.12,526.49Z"/><path class="cls-5" d="M158.55,274.79l-8.07-5.23c-7.65-6.38-16.2,0-21.85,6.18-9.71,10.63-10.17,24.87-12,38.13-2.28,16.63-19,53.5,2.95,63.4,11.14,5,16.26-5.43,19-14.49,4.5-14.85,7.61-31.38,15.8-44.66,2.6-4.23,7-7.1,9.26-11.51,1.92-3.71,1.83-8.27,2-12.35C166.08,285.81,162,282,158.55,274.79Z"/><rect class="cls-6" x="384" width="103" height="518"/></g></g></svg>