<svg xmlns="http://www.w3.org/2000/svg" viewBox="0 0 483.3 488.09"><defs><style>.cls-1,.cls-7{fill:#9ce8e6;}.cls-1,.cls-6{opacity:0.1;}.cls-2{fill:#079191;}.cls-3{fill:#0bd6d6;}.cls-4{fill:#10fcf5;}.cls-5{fill:#dae54c;opacity:0.3;}</style></defs><g id="Layer_2" data-name="Layer 2"><g id="Layer_1-2" data-name="Layer 1"><ellipse class="cls-1" cx="241.81" cy="241.64" rx="231.66" ry="234.08"/><circle class="cls-2" cx="245.02" cy="245.44" r="168.93" transform="translate(-101.79 245.14) rotate(-45)"/><path class="cls-3" d="M237.59,116.69c-25.37,2.5-41.12,12.64-61.21,27.48-16.88,12.47-31,30.29-48.75,40.25-12.1,6.8-29.95,17.22-46.17,18.94a168.15,168.15,0,0,0-5.25,34.41c35.07-15.45,80.81-35.25,101.58-66.61,13.37-20.19,30.4-30,54.13-35.17,20.47-4.45,39.22.74,59.84,0,23.87-.89,43.52-7.71,64.87-16.59a169.72,169.72,0,0,0-25.5-18.58c-9.74,6.68-30,13-34.59,13.69C277.54,117.52,256.76,114.79,237.59,116.69Z"/><path class="cls-3" d="M303.11,262.55c-43.39,19.81-87.85,34.3-132.53,50.31-22.06,7.91-44.68,18.56-67.59,24.85a166.88,166.88,0,0,0,12.92,17.41A219.55,219.55,0,0,1,164,333.21c35.59-11.41,69.72-25.14,105.16-37.43,32.34-11.23,64.38-24.3,96.05-37.42,13.92-5.76,27.82-11.44,41.8-17,2.1-.83,4.36-1.94,6.7-3.08A168.78,168.78,0,0,0,410,210C380.49,235.07,336.35,247.37,303.11,262.55Z"/><path class="cls-3" d="M334.17,342.93c-27,14-56.25,23.19-83.8,34.77a156.85,156.85,0,0,0-34.54,20.35c-3,2.28-8.9,7.2-12.43,11.82a166.14,166.14,0,0,0,19.18,3.68c4.63-3.86,8.94-8.44,13-10.94,11.38-7,24.87-10.65,36.86-17.26,29.28-16.13,60.32-27.66,90.1-43.35,9.41-5,20.46-12.72,31.14-15.78a167.27,167.27,0,0,0,11.77-27.35,59,59,0,0,0-6,2.29C376.3,312.07,357.16,331,334.17,342.93Z"/><path class="cls-3" d="M345.82,282.53c-16.25,8.68-32.72,12.18-49.48,18.89-20.07,8-39.6,17.57-60.7,22.47-26.7,6.19-49.73,19.38-75.1,29.41-8.23,3.25-19.6,10.27-31.07,16.1a169.48,169.48,0,0,0,39.29,27.51c8.27-5.55,22.78-10.49,30-14.39,20.42-11,41.71-20.13,61.92-31.37,30.27-16.85,60-33.92,91.71-47.73,14.77-6.43,29.39-13.61,44.73-18.62,2.63-.86,7.88-2.7,13.15-3.95a169.41,169.41,0,0,0,3.56-32.48c-4,2.23-7.91,4.2-10.8,5.8C384.42,264.46,364.63,272.48,345.82,282.53Z"/><path class="cls-3" d="M373.4,352.39c-14,7.17-28.1,14.3-42,21.94-22.66,12.42-44,25.67-65.4,39.39a168.67,168.67,0,0,0,111.89-63.36C376.32,351,374.83,351.66,373.4,352.39Z"/><path class="cls-3" d="M259.12,253.57c34.8-8.08,64.7-24.17,96.37-40.53,8-4.15,30.53-17.56,49-22.67a168.66,168.66,0,0,0-28.92-51.44c-10.84,3.44-22.31,6-31.38,10.32-28.12,13.38-34.63,40.38-49.63,66.06-11.59,19.84-30.41,36.43-54.66,32.88-21.65-3.18-39.16-14.71-62.1-12.47-28.73,2.81-57.17,18.68-82.43,31.74-4.33,2.23-10.1,5.79-16.5,9.56a168.43,168.43,0,0,0,10.71,35.44c17.95-9.75,39-13.57,58.5-19.21C185.68,282.32,220.94,262.44,259.12,253.57Z"/><path class="cls-3" d="M91.66,175.88c23.92-3.87,40.41-6.66,56.34-26.32,33.51-41.34,82.8-45.06,132.67-45.34,7.69,0,21.91-7.58,34.19-12A169.09,169.09,0,0,0,91.21,176Z"/><path class="cls-4" d="M364.15,126c-2.78-2.21-49.77,17.83-52.93,18.65-26,6.67-51.25-3-77.09,4.64C215.05,154.93,203.79,168,191.4,183c-3.76,4.54-6.28,10.1-10.24,14.69-7.31,8.47-18.66,14.46-28,20.5-5.91,3.83-12.28,5.28-18.63,8-7.84,3.32-15.36,7.68-23.14,11.23-9.54,4.37-22.07,10-29.94,15.12L78,254c-5.73,10.35,12.29,1.38,16.14-.52,11-5.4,22-11.26,33.61-15.48A279.06,279.06,0,0,0,160.26,224c8-4.12,16.25-8.09,24.36-12,5-2.38,10.6-5.25,16.28-4.45,10.48,1.47,16.16,12,27.09,12.62,10.51.57,16.75-3.61,22.66-11.7,5.26-7.19,8.78-14.29,2.79-21.5-6.41-7.71-12.12-11-22.3-8.13-7.82,2.22-17.95,12.7-9,19.56,2.08,1.58,9,3.91,11,1,2.25-3.23-4.36-6.84,2.51-8.47,4.17-1,8.37,2.48,8.08,6.56s-4.49,6.63-7.57,8.66A16.76,16.76,0,0,1,213.62,203c-14.36-17.14,2-34.6,19-40.56,19.52-6.84,41.76-.85,61.86-5,8.73-1.83,17.39-5,25.8-7.81C323.32,148.54,369.14,130,364.15,126Z"/><path class="cls-4" d="M290.72,182.4c-2-8.34-9.58-12-17.27-13.06-4.33-.6-24.87-.82-15.59,6.93,6.71,5.59,16.5-1,18.11,11.19A34.58,34.58,0,0,1,270.82,211c-10.37,15.77-30.11,16.13-46.74,12.09-17.39-4.22-36.81-6-53.19,1.51-18.28,8.4-37,17.49-56.66,21.4-4,.8-21.59,1.57-23.18,5.42-3.25,7.85,91.2-26.19,91.2-26.19,10.22-2.94,23.14-1.11,33.76,2.14s24,8,35.27,7.43C274.17,233.63,296.37,205.76,290.72,182.4Z"/><path class="cls-4" d="M403.45,201.07c-4.92-2-17.51,5.94-21.28,8.93A131.35,131.35,0,0,1,350,228.25c-45.73,18.59-88.55,47.82-137.47,57.59-15.16,3-29.82,8.5-44.74,12.47-10.84,2.88-21.28,6.63-31.86,10.21-12.62,4.29-25.19,8.8-37.8,13l1,3.52c.81,1,1.86.14,3.65-.37,8-2.3,15.4-5.73,23.56-7.67a337.17,337.17,0,0,0,35.77-11.1c20-7.24,40.83-12.47,61-17,18.58-4.2,33.94-14,51.39-20.77,9.5-3.67,18.36-8.6,27.71-13,12.63-5.93,26.44-10,38.7-16.63,15.57-8.36,31.34-16.42,47.35-24.41C391.27,212.52,411.16,204.28,403.45,201.07Z"/><path class="cls-4" d="M332,296.41c-38.61,12.8-76.81,27.29-114.64,42.59-18.12,7.33-36.91,12.93-54.17,21.93-4.3,2.23-9.08,4-11.81,8.29-2.4,3.74-1.2,7.26-1.39,10.21l6.55,8.57c2.46,6.57,14.19-.53,17.52-3.17,10.68-8.46,22.77-17.47,35.23-23.43,9.84-4.7,20.83-6.49,30.47-11.67,11.95-6.43,23.26-14.41,35.14-21.1,15.19-8.56,31.68-14.65,47.58-21.73,4.3-1.91,82.41-34.65,81.95-39.83C398.4,268.91,338.21,294.36,332,296.41Z"/><path class="cls-5" d="M243.38,415.16c93.69,0,169.64-75.85,169.64-169.42,0-78.77-53.84-145-126.77-163.95-1,6.32-.07,13.85,3.59,22.6,13.63,32.53,42.09,58.76,56.43,90.89,30.05,67.38,22.24,146.37-59.28,167.78-33,8.68-73.63,3.28-100.7-17-31.17-23.37-25.93-59.71-20-93.87,5.85-34,33.29-87.86,15.47-122-4.72-9.06-22.77-28.8-43.17-17.64A169,169,0,0,0,73.73,245.74C73.73,339.31,149.68,415.16,243.38,415.16Z"/><path class="cls-5" d="M150.81,163.45l-8.07-5.22c-7.65-6.38-16.2,0-21.85,6.17-9.71,10.64-10.17,24.88-12,38.14-2.27,16.63-19,53.5,3,63.4,11.14,5,16.26-5.43,19-14.49,4.49-14.85,7.61-31.39,15.79-44.66,2.61-4.23,7-7.1,9.27-11.51,1.91-3.71,1.83-8.27,2-12.35C158.33,174.48,154.21,170.62,150.81,163.45Z"/><g class="cls-6"><path class="cls-7" d="M241.65,488.09c-64.57,0-125.27-25.4-170.92-71.52a245.78,245.78,0,0,1,0-345C116.38,25.4,177.08,0,241.65,0S366.92,25.4,412.56,71.52a245.75,245.75,0,0,1,0,345.05C366.92,462.69,306.22,488.09,241.65,488.09Zm0-464.83c-120.42,0-218.39,99.05-218.39,220.79s98,220.78,218.39,220.78S460,365.79,460,244.05,362.07,23.26,241.65,23.26Z"/></g></g></g></svg>