<svg xmlns="http://www.w3.org/2000/svg" viewBox="0 0 337.87 337.87"><defs><style>.cls-1{fill:#ed6326;}.cls-2{fill:#ef8a34;}.cls-3{fill:#edba3a;}.cls-4{fill:#ffff9f;opacity:0.2;}</style></defs><g id="Layer_2" data-name="Layer 2"><g id="Layer_1-2" data-name="Layer 1"><circle class="cls-1" cx="168.93" cy="168.93" r="168.93" transform="translate(-69.97 168.93) rotate(-45)"/><path class="cls-2" d="M21.85,150.4c16.66-7.7,30.65-23.05,36.28-39.46,10.08-29.42,37.71-49.49,65.61-33.81,2.74,12.3-12.88,6.26-19.08,6.61-9.2.52-17.58,4.29-21.32,13.57-7.82,19.46,22,27.48,25.71,8.2-7.75-3.46-19.92-9.52-2.12-10.46,10.89-.58,15.15,8,12.24,17.91-2.5,8.48-12.92,15.25,2.5,18.38,9.43,1.92,19-5.17,26.06-10.48,17-12.86,18-28.67.92-41.38-6.15-4.59-15.46-9.32-18.23-17-2.85-8,4.89-18.56,15.05-13.91,9.23,4.23-.3,16.75,13.66,20.46,12.41,3.29,15.91-10.85,23.72-18.2,17.9-16.84,39.3-.84,14.77,12.25-7.08,3.78-21.85,9.41-16.72,19.52C185.68,92,202,88,208.73,82.64c6.17-5,15.43-17.91,17-26.11,2.5-13.28-9-13.93-11.92-23-3.24-10.09,14.63-14,31.32-15.33A169,169,0,0,0,.26,155.6C7.36,154.47,14.9,153.6,21.85,150.4Z"/><path class="cls-2" d="M293.09,127.7c-3.08,0-6.65-3.15-10.46-2.1-7.55,2.1-14.5,17.6-17.14,24-10.25,25,39.16,21.34,43,48.33C310.7,213.84,301,225.3,287.15,230c-7.66,2.62-12.91,3.9-20.13,9.05-4.56,3.25-8.44,7.41-13.54,9.27,5.92-1.31,15.3-1.47,20.94-1.37,13.43.24,13.54,2,7.13,12.67-2.47,4.13-21.05,32.88-29.29,18.84-3.6-6.14,8.16-12.42,5.52-19-4.16-10.42-49.29,15.54-44.35-11.4,1.35-7.36,10.3-9,15.9-11.28,9.42-3.82,18.33-8.2,26.1-15,23.28-20.33-.55-53.29-25.19-56.44-7.73-1-23.32-1.52-25.56-11.59-3.28-14.72,13.17-8,20.14-5.12,31.24,12.84,21.87-25.51,30.27-44.5,5-11.27,15.18-25.75,25.53-31.49,6.69-3.7,13.81-5.91,19.44-9.89a169.92,169.92,0,0,0-15.3-16.55A27.54,27.54,0,0,1,277,48.54c-9.55,1.53-21.46-1.13-28.08,7.11-6.25,7.76-6.55,21.12-11.37,30.1-5.58,10.39-13,21.2-25.2,21.79C204,108,194,99.9,186.29,101.85c-17.24,4.36,6.66,25.12,2,38.57-3.8,10.9-35.32,47-42.81,27.2-4.62-12.21,26.86-35.64-1.17-32.9-20.51,2-35.48,25.61-56.46,22.53-3.73-8.47,5.09-16.8-3.32-22.78-8.12-5.78-16.8,3-20.37,10.46s-5.27,21.37,2,27.28c9.8,8,24-1.32,33.73-3.73,7.52-1.87,19.59-1.86,18.21,9.35-1.61,13.17-30.46,25-41.77,22.66-19.69-4.06-12.08-31.28-36.27-35.13-15.58-2.48-27.75,10-39.17,23.15q.95,8.27,2.68,16.25C13.78,197.32,33.08,184.39,40,186.9c5.73,2.07,10.23,13.51,15,17.82,6.56,5.93,13.74,11.91,22.43,12.78S97.69,216,105,211c6.93-4.79,10.92-15.54,21.06-14.87.36,14.58,10.74,13.11,20.33,5.27,13.16-10.79,19.12-20.82,38.76-22.48,14.47-1.22,37.87.08,44.09,15.7,5.64,14.19-5.14,29.41-19,33.21-14.56,4-38-10.18-46.9,6.67-12.45,23.71,14.16,37,32.9,39.92,7.52,1.16,21-1.28,25.5,6.5,8.68,15-13.71,32.74-27.49,31.79-19.13-1.32-16.33-28.28-28.36-29.49-13.57-1.36-3.73,21.69-14.77,26.23-17.06,7-12.2-16.45-9-23.77,5.15-11.7,12.24-20,6.8-33-6.43-15.46-41.16-34.76-57.87-30.64-13.62,3.36-9.22,14.67-.31,19.58,8.63,4.76,23.86,3.18,30.85,10.21,15.43,15.5-11.37,34.33-27.66,33.49-11.46-.6-33.51-6.09-37.84-18.21-2.75-7.67,2.92-16,3.3-23.44,1.43-27.8-34.73-40-53.61-29.77A169,169,0,1,0,330,118.5C318.32,123,304.61,127.76,293.09,127.7Z"/><path class="cls-3" d="M86.51,52.05c-9.52-3.74-18.6.84-26.72,4.62S41.09,62.25,35.67,70l5.67,6.8C30.25,79.27,18.87,97.34,19.8,108.53c1.61,19.26,15.78,6.92,20.37-3.43,4.88-11,10.51-25.45,21.55-32.59C69.16,67.69,89.38,65.67,86.51,52.05Z"/><path class="cls-3" d="M147.9,318.31c-7.32.31-16.36.63-20.72-6.55-5.69-9.39,4.71-13.33,2.58-23l-3.4-7.94c-6.23,10.66-39,10.58-37.46,22.67,1.53,12.25,34.38,15.15,43.13,17.26,6.27,1.51,17,6.89,23.8,4.28C169.25,319.86,154.63,318,147.9,318.31Z"/><path class="cls-3" d="M313.41,150.48l-14.74-3.41c-8.29-7.79-38,2.33-19.27,15.62,9.21,6.54,28.08,5.22,33.75,16.38,2.29,4.5-3.38,14.7,3.63,15.73,5.42.79,8.48-11.66,9.16-14.79C328.22,169.55,324,155,313.41,150.48Z"/><path class="cls-3" d="M125.23,22.38c-4.89.13-12.35,5.42-10.29,11.36,2.46,7.09,14,3.68,19.36,3.4,9-.47,30.5-.18,30.78,13.41,15.29,1.93,10.8-14.37,18.19-20,5-3.87,24.87-1.58,10.85-12.41-14.29-11.06-45-.25-61-.26Z"/><path class="cls-3" d="M247.63,78.78C243.08,82.12,240,92,237.46,97.2l-4.54,12.47c-4.89,8.92-46.41,4-31.48,22.41,4.53,5.6,15.94,3.12,22.47,3.35,9.48.33,9.08,2.16,13.55-8.76,5.31-13,13.15-26,18.1-39.68C258.76,78.2,258.11,71.09,247.63,78.78Z"/><path class="cls-4" d="M169.6,9.76c-18.59-2-42.68,5.62-60.08,11.62C81.54,31,60.63,50.29,42.86,74.13c-29.43,39.47-38.6,94-26,141,13.54,50.69,56.72,97.34,109.64,103.22,38.68,4.29,95.23,10.31,122.78-21.51,12.36-14.29,34.36-47.77,7.64-57.81-24.56-9.24-55,1.38-80.7-2.52-43.47-6.6-76.09-31.62-72.39-78.51,1.63-20.6,9.56-45.6,25.8-59.28,14.63-12.33,35.16-15.68,52.79-21.23,15.43-4.86,35.91-12.13,34.83-31.46-1-18.62-14.32-21.18-23.8-31.74Z"/><path class="cls-4" d="M134.3,53c-9.49-5.4-27.54,4.17-31.74,2.26L92.35,57.52C70.25,62,58,83.45,50.44,102.84c-4.52,11.65-13.8,53,10.17,53.33,10,.14,13.31-14,16.75-21.57C83,122.19,89.5,108.83,98.65,98.49,105.68,90.55,150.16,62,134.3,53Z"/></g></g></svg>