<svg xmlns="http://www.w3.org/2000/svg" viewBox="0 0 340.89 338.09"><defs><style>.cls-1{fill:#7d0d98;}.cls-2,.cls-3{fill:#eb53c0;}.cls-3{opacity:0.3;}.cls-4,.cls-6{fill:#fff;}.cls-4,.cls-5{opacity:0.2;}.cls-7{fill:#ff71f8;opacity:0.5;}</style></defs><g id="Layer_2" data-name="Layer 2"><g id="Layer_1-2" data-name="Layer 1"><circle class="cls-1" cx="170.59" cy="168.93" r="168.93"/><path class="cls-2" d="M323.4,178.94c-17.76-6.69-74.25,5-77.12-18.63-1.48-12.18,11.28-26.62,6.32-38.93-5.38-13.36-26.48-13.28-38.29-15.53-11.25-2.15-35.62-8.74-34.12-25.23,1.15-12.7,18.74-12.14,27.55-13.54,20.71-3.29,38.31-7.16,57.64-15.95,6.07-2.76,11.14-6.57,16-10.53A169,169,0,0,0,244,15.93c-2.3,4.5-10.75,1.31-15,7.11-5.76,7.79,4.34,13.29-9.08,19.07-7.16,3.09-20.33,3.83-27.23-.85-9-6.1-7.44-12.32-20.38-12.81-.71,0-11,1-11.34,1.14-5,2.63-3.38,6.19-6.74,9.09-9.56,8.23-11.65-2.33-22.7-2.26-12.09.07-13.34,10.27-17.83,18.14C107.93,64.68,98.14,70.2,86.13,70.42c-10.48.19-17.19-5-22.62-13.6-2.43-3.83-2.95-10.44-5-15.1A168.52,168.52,0,0,0,1.69,165.59c5.43-4.59,9.38-10,9.68-17l3.4-11.34c6.3-23.66,33.46-44.74,49.88-20.21,7,10.49,9.84,23,24.63,24.52,17.37,1.73,30.21-13.73,43.69-21.65,16.79-9.85,34.64-8.21,48.41,5.41,9.27,9.18,22.88,30.6,13.37,43.67C176,194.86,141.38,149.43,119,165.36c-29.53,21,27.24,35.7,37.47,44.5,31.61,27.2-11.82,52.76-40.87,53.27-8.85.16-19.53-3.53-28.34-1.19-12.36,3.28-26,15.53-37.59,21.58l-1.63.85a168.9,168.9,0,0,0,75.42,46c2-18.54,27.68-6.73,38.65-6,26.49,1.77,7.35-34.19,29.5-42,7.38-2.6,22.42-1.34,23.86,6.81,1.72,9.76-18.75,18.18-8,25.27,12.78,8.46,10.45-11.07,18.13-12.84,4.86-1.12,4.77,5.93,10.26,5.72,5.21-.2,5.12-4.42,9.33-6.54,9.85-5,22.06-7.27,29.52.38a168.73,168.73,0,0,0,64.05-116.49C333.77,183.11,328.75,181,323.4,178.94Z"/><path class="cls-3" d="M88.66,147.94c-4.25-2.36-8.08.52-12.55.41-9.71-.26-18-4.31-22.06-13.22-3.87-8.59-13.3-12.14-21.82-5.41-7.61,6-5.81,18.24-7.89,26.54-1.46,5.85-9,23.43-16.39,21.14l.53.52c-5.51,3.92-3.22,11.66,1.58,14.93C16.29,197.1,22.33,191.68,25,186c4.81-10.25,5.91-23.64,13.71-32.36,5.45-6.1,15.11,1.32,22.08,2.78,7.35,1.54,19.3,3,25.89-.25C91.15,154,94.13,151,88.66,147.94Z"/><path class="cls-3" d="M275.3,118.21c-.53-10.54-4.65-16.77-12.79-23.11a49,49,0,0,0-12-6.62c-4.18-1.69-9.4-1.6-13.21-3.55-4.83-2.48-4.9-6.64,0-9.11,4-2,9.39-.59,13.62-.4,3.57.16,18.35-1,11.62-6.74-3.35-2.87-14.95-1.45-18.9-.67-11.51,2.28-25,1-36.37,4.33.07.75-.33.62-.61,1l-6.34,2.11c-4.8,1-5.32,7-2.5,10.46,3.26,4,9.91,4.07,14.53,4.45,11.34,1,21.26.79,31.94,5.3,9,3.81,18.39,11.77,20,22.06.75,4.87-5.39,24.27-1.07,25.38C271.8,145.3,275.56,123.15,275.3,118.21Z"/><path class="cls-3" d="M134.39,25.62c-1.6-3-9.91-2.57-12.84-2.51-7.38.16-12.34,3.78-18.48,7.4-5.14,3-14.9,10.43-21.07,9.43-.69-2.65,8.51-13.68-.61-9.43L74,35.26c-10,1.49-5.06,16.06,1.57,19,11.63,5.21,19.21-1.75,26.3-9.62a62.35,62.35,0,0,1,12.28-10.85c5.24-3.4,7.66-2.58,13.21-2.23C130.26,31.76,137,30.6,134.39,25.62Z"/><path class="cls-3" d="M319.57,147.41c-1.74-9.55-14.59-17.3-20.47-24.44-5.71-6.93-15.61-7.69-14.19,3.63.88.46.62-.4,1-.46l-1.05,2.65c-.47,5.34-3.74,10.77-7.41,14.38-3,2.92-9.17,4.27-11.51,7.4-3.26,4.36-.45,9.57,4.11,11.12,6.87,2.33,12.63-2.87,18.88-4.37C298,155.13,323.06,166.54,319.57,147.41Z"/><path class="cls-4" d="M209.39,125.62c-14.84-20.5-44.79-31.49-69.74-31.18-11,.14-25,4.27-34.48,9.9-8.89,5.26-14.26,9.86-22.84,1.22C69.17,92.3,51.78,79,32.76,90.23c-6.67,4-11.77,10.18-16.74,16-3.28,3.83-4.2,4.75-4.37,9.89-.09,2.7,1.68,11.15,3.7,4.76v-2.64C25.81,103.06,50,86.68,66.75,103.81,69.89,107,70.59,111.47,73,115c2.82,4.06,6.69,6.57,11,8.6,12.86,6,24.73,2.12,35.41-6.33,18.45-14.59,48.39-11.74,66,3,15.93,13.35,38.76,52.22,13.18,66.72-10.79,6.12-25.15,3.47-36.44,0-10-3.1-20.77-14-31.7-8.71-3,1.45-7.39,5-4.11,8.44,3.85,4,7-2.15,9.94-3,8.27-2.49,22.32,7.49,30.11,9.9,8.64,2.67,18.86,5.41,28,4.89,8-.46,19.55-9.24,22.34-16.79C223,165.06,219.79,140,209.39,125.62Z"/><path class="cls-4" d="M176.38,209.13c-7.83-10.47-22-15-33.7-18.53l-2.11-.52c-6.48,2.92,4.52,5.25,6.34,5.78,5.57,1.61,10,5.14,14.21,9,8.69,8,11.8,17.93,12.21,29.5.52,14.78-5.74,28.3-20,33.83-10.14,3.95-24,5.39-35,5.39-9.36,0-19.54-1-28.53,1.08-6.83,1.6-18.95,3.78-21.56,11.59-1.31,3.91.87,7,5.18,7.4,4.61.39,6-3.58,9.54-5.67,8-4.74,21.35-4.06,30.52-5.42,21.85-3.23,50.55-.28,65.08-21.13C190.23,244.74,188,224.57,176.38,209.13Z"/><path class="cls-4" d="M282.07,283.06c-2.78-7.49-21.17-7-27.37-6.74-7.86.35-19.12,4.58-25.36-.78-9-7.73-11.94-13.93-24.81-14.25-9.63-.25-24.24,8-30.67,14.91-7.94,8.56-9.65,19-22.07,23.13-12.66,4.22-29.91-3.42-41.31,4.44-9.46,6.51-2.28,27.13,5.26,18.4l1.05,1.58c-1.5-14.74,18-18.6,29.19-16.38,5.57,1.11,11.09,5,16.8,4.76,9.76-.39,9.07-8.53,11.21-15.72,4.69-15.75,18-25.17,33.7-25,4.86.06,13.15,0,14.29,6.34.91,5.1-4.67,6.94.08,12,3.17,3.4,8.07,3.69,10.88.16,0,.64.15,1.35.17,2,4.66-.65,8.24-5.27,13.11-6.37,5.29-1.2,11.23-.05,16.38,1.29,3.76,1,9.46,5,13.23,4.64C279.26,291.22,283.45,286.78,282.07,283.06Z"/><path class="cls-4" d="M303.81,188c-17.83-1.46-43.57,5.69-56.92-9.1-8.48-9.4-4.42-31.23-3.81-43.21.33-6.69.38-16.31-5.84-20.5-1.83-1.22-7.38-3.07-9.5-2.23-4.14,1.64-1.93,4.64,1.07,4.77l4.75,1.58c7.67,7.69,4.14,18.08,1.19,27.48-3.6,11.5-5.71,25.73-.26,37.1,5.72,11.93,23,14.94,35,15.21,10.5.23,20.59-4.67,31.15-2,8,2,16.34,10.36,23.77,2.66C333.67,190.12,309.73,188.45,303.81,188Z"/><path class="cls-4" d="M266.35,35.27A8,8,0,0,0,262.1,31l-.53,2.11c-2.4,10.27-21.74,14.12-30.24,16-15.94,3.52-31.89,4.7-48,7.78C172.74,59,156,66.91,157,80.18c.29,4.21,4.17,8.3,8.57,7.8,6.07-.67,3.21-4.73,4.1-9.39,1.77-9.28,14.39-12.1,22.18-13.24,10.46-1.52,20.48-1.87,30.67-5.65,9.23-3.42,18.51-5.32,27.46-8.6C256,48.88,269.58,44.74,266.35,35.27Z"/><g class="cls-5"><path class="cls-6" d="M190.24,253.32a8.68,8.68,0,0,1,.13-1.25l-.13-.17C190.23,252.37,190.24,252.85,190.24,253.32Z"/><path class="cls-6" d="M293.69,261c-7.93-7.22-26.92-8.11-36.91-7.11-8.74.88-17.44,4.68-25.28-.93-9.78-7-16-18-29.23-12.82-5,2-11,6.31-11.9,11.93l1.45,1.94a2.81,2.81,0,0,0-2.06,2.53c4,2,9.21-3.13,13.16-4.12a28.12,28.12,0,0,1,14.38.4c3.75,1.21,8.93,4.28,11.54,7.41,3,3.65,2.5,7.93,7.89,8.57,8.66,1,16.11-6.22,25.37-4.76s13.79,8.65,21.1,13.36C294,284.34,302.34,268.86,293.69,261Z"/></g><path class="cls-4" d="M83,91.08a1.07,1.07,0,0,0,.68-.73C83.49,90.58,83.26,90.82,83,91.08Z"/><path class="cls-4" d="M83.71,90.35l.46-.44L84,89.69A2.15,2.15,0,0,0,83.71,90.35Z"/><path class="cls-4" d="M174.53,37.77c-6.14-3.23-6,2.41-8.58,6-5.23,7.1-15.86,7.17-23.38,10.16-9.71,3.86-15.84,10.76-20.61,19.42-4.25,7.71-13.18,12.22-21.55,13.85C94.08,88.4,89,85.6,84.17,89.91l1.45,2.42c-5.55,10,23.7,1.85,26.42.52,11.2-5.44,15.83-15.28,23.25-24.3,5.9-7.17,14.13-9.89,22.72-12.14,5.74-1.5,18.47-2.77,20.48-9.64A8.18,8.18,0,0,0,174.53,37.77Z"/><path class="cls-7" d="M170.45,338.09c94.13,0,170.44-75.75,170.44-169.2,0-78.66-54.09-144.79-127.37-163.73-1,6.31-.07,13.84,3.61,22.57,13.69,32.49,42.29,58.68,56.69,90.77,30.2,67.29,22.34,146.17-59.56,167.55-33.19,8.67-74,3.28-101.17-17C81.78,245.74,87,209.45,93,175.33c5.89-33.93,33.46-87.74,15.55-121.85-4.75-9-22.88-28.77-43.38-17.62A168.48,168.48,0,0,0,0,168.89C0,262.34,76.31,338.09,170.45,338.09Z"/><path class="cls-4" d="M61.53,252.5c-12.26-19.71-16-42.9-18-65.75-2.09-23.69.68-48.15,6.45-71,3.63-14.43,25.54-45.65,9.25-49.13-15.68-3.35-38.73,29-42.34,48.2C10,151.51,12.75,185.85,23.55,221.7a185.19,185.19,0,0,0,17.57,41.38c3.66,6.32,6.74,11.75,13.44,15.35,4,2.12,12.63,7.09,16.63,7.16C89.06,285.88,65.16,258.34,61.53,252.5Z"/></g></g></svg>