<svg xmlns="http://www.w3.org/2000/svg" viewBox="0 0 604.36 354.71"><defs><style>.cls-1{fill:#ed6326;}.cls-2{fill:#ef8a34;}.cls-3{fill:#fff;opacity:0.2;}.cls-4{fill:#7d0d98;}.cls-5,.cls-6{fill:#eb53c0;}.cls-5{opacity:0.6;}.cls-6{opacity:0.3;}</style></defs><g id="Layer_2" data-name="Layer 2"><g id="Layer_1-2" data-name="Layer 1"><circle class="cls-1" cx="307.37" cy="168.93" r="168.93"/><path class="cls-2" d="M272.43,203c-32.08-18.14-82.76-14.65-107.41,14.31-4,4.75-8.16,12.38-11.57,21.25A169.26,169.26,0,0,0,270.5,334.18C312.17,299.89,328.4,234.64,272.43,203Z"/><path class="cls-2" d="M220.76,80.51C200,79,175.31,100,170.8,119.81c-6.89,30.22,20.41,30.59,42.4,31.74,21.05,1.11,48.86-3.94,52.94-30.23S246,82.32,220.76,80.51Z"/><path class="cls-2" d="M418.35,104.78c-8.42-23.12-23.67-42.23-40-59.53-9.1-9.67-78.62-33-62.44,15.61,4.33,13,9.36,29.85,16.25,40.48,13.73,21.18,28.33,58,56,57.77C415.54,158.9,426.4,126.89,418.35,104.78Z"/><path class="cls-2" d="M452.93,193.52c-.87-4-8.14-27.7-8.14-27.7-21.71-30.59-73.21,63.8-63.5,84C402.55,294,461,230.59,452.93,193.52Z"/><path class="cls-3" d="M157,91.05A169,169,0,0,0,431.92,282.74c-5.11-3.83-12.22-6.45-21.63-7.25-35-3-71.34,10-106.35,7.85-73.41-4.56-139.63-47.91-121-129.75,7.55-33.17,31-66.51,61.43-81,35-16.73,64.73,4.66,92.21,25.62s62.32,69.94,100.73,70c10.18,0,35.95-6.81,35.48-30A168.93,168.93,0,0,0,157,91.05Z"/><path class="cls-4" d="M167.85,57.08S110.41,43.48,95.3,67.66s53.13,94.75,187.43,151.91c147.38,62.73,231.86,70.89,253.19,48.37,13.6-14.36-44.59-64.24-44.59-64.24l3.78-10.58s96.74,58.2,60.46,99-188.66,9.3-281.91-37C149,193.12,28,99.65,49.2,60.1,71.11,19.29,173.14,49.52,173.14,49.52Z"/><path class="cls-4" d="M104.37,31.38c-6.05,1.52-89-4.68-75.58,39.3,10.58,34.77,81.74,116.17,218.42,182.9,161,78.6,225.93,75.65,272.84,77.09,98.25,3,53.66-65.75,53.66-65.75s64.75,65.58,6,81.62c-113.36,31-277.74-33.31-354.46-74.82C133.09,221.84,31.81,149.29,6.12,91.85c-18.5-41.35,8.56-60.76,33.25-68C65.07,16.27,104.37,31.38,104.37,31.38Z"/><path class="cls-5" d="M118.16,129.45c-7-10-16.53-16.09-23.82-26.1-6.2-8.51-17.7-15.75-20.18-25.9C70.88,64,78.27,57.71,89.25,53.3c5-2,9.61-4.22,15.12-5.33,2.71-.55,18.51-.15,9.82-5.87-3.7-2.44-13.67.79-17.42,1.34A119.68,119.68,0,0,1,79.43,45L75.65,46.5C64.39,49.28,56.12,60.57,57.49,72.21c1.47,12.53,6,23.09,16.69,30,20.77,13.43,31.27,39,53.66,51.4,3.07,1.7,5.29,3.36,8.91,3.1C139.22,143.55,124.7,138.78,118.16,129.45Z"/><path class="cls-5" d="M70.93,144.94A100,100,0,0,1,61.52,134c-4.59-5.81-10.54-7.72-15.2-13.47C33.43,104.59,21.88,80.77,18.93,61.61c-1.22-7.87.15-18,6.67-22.86C32,34,41.4,33.1,47.61,28.17c-3-2.33-8.62-1.67-12,.19l-5.29,3C17.17,32.05,9.61,50.13,9.1,60.86c-.57,12.07,8.63,22.57,12.89,34,4.94,13.27,6.39,22.57,17.19,32.68C49,136.7,57,144.8,67.3,153.21c2.93,2.4,14.58,11.31,14.24,2.1C81.43,152.28,73.13,147,70.93,144.94Z"/><path class="cls-6" d="M544.65,268.7c-11.21,14.68-30.21,19.59-48.74,19.33s-36.33-6.08-54.42-7.93c-18.81-1.93-36.5-3.58-54.35-8-18.44-4.57-36.33-9.29-53.59-17.8-6.62-3.26-17.56-11.6-24.69-11.86-16.95-.63,4.57,6.69,7.94,10.45l4.53,2.27c6.66,13.53,36.27,17.78,49.88,20.15,22.29,3.89,44.22,9.46,66.94,12.78,19.14,2.8,37.55,8.25,56.62,10.2,15,1.54,37.61-.87,49.6-10.54,5.07-4.09,13-11.21,12.81-17.8C556.79,256.31,549.13,262.84,544.65,268.7Z"/></g></g></svg>