<svg xmlns="http://www.w3.org/2000/svg" viewBox="0 0 579.41 343.91"><defs><style>.cls-1{fill:#204e84;}.cls-2{fill:#97fc68;}.cls-3{fill:#b6fc8d;}.cls-4{fill:#0b8980;}.cls-4,.cls-7{opacity:0.3;}.cls-5{fill:#fff200;opacity:0.5;}.cls-6{fill:#0cc1bc;}.cls-7{fill:#fff;}</style></defs><g id="Layer_2" data-name="Layer 2"><g id="Layer_1-2" data-name="Layer 1"><path class="cls-1" d="M476.3,121.22c-2-2.25-11.73-3.46-14.82-1.64-5.74,3.38-4.39,9.69-4.32,15.93-9.88-9.55-25.79,3.48-22.71,16.67-8.73-3.19-23.4,5.41-24.06,16.53-.81,13.62,19,22.14,27.36,12.9,6.4,21,47.94,20.31,49.35-3.45,7,13,22.5,21.23,36.12,21.64,10,.3,42-14.81,30.95-30.22,11.69.2,28.27-6.62,24.77-23.7-3.75-18.28-23.16-10.77-33.3-10.21,4.46-9.89-14.12-14.78-20.12-16.07-10.24-2.2-19.35,0-28.24,6.12,1.87-15.08-25.62-15.42-24.18,0a7.41,7.41,0,0,0,3.2-1.74Z"/><path class="cls-1" d="M59.75,167.64c-1.79-1.87-10.64-2.87-13.44-1.36-5.2,2.8-4,8-3.91,13.19-9-7.91-23.37,2.87-20.58,13.79C13.91,190.62.62,197.74,0,206.94c-.73,11.28,17.24,18.32,24.79,10.68,5.8,17.42,43.44,16.81,44.72-2.86,6.38,10.73,20.38,17.57,32.73,17.91,9,.25,38-12.25,28-25,10.6.17,25.62-5.47,22.44-19.62-3.39-15.13-21-8.91-30.17-8.44,4.05-8.19-12.79-12.23-18.23-13.3-9.27-1.83-17.53,0-25.59,5.06,1.7-12.48-23.21-12.77-21.91,0a7,7,0,0,0,2.91-1.43Z"/><path class="cls-1" d="M473.37,250.22c1.36,2.19,9.79,5,12.85,4.15,5.67-1.64,5.58-7,6.6-12.07,7.09,9.62,23.45,2.12,23-9.15,7.18,4.25,21.67.09,24.19-8.78,3.09-10.87-13-21.54-22-15.66-2-18.25-38.93-25.58-44.32-6.63-4-11.83-16.23-21.46-28.23-24.39-8.77-2.15-39.76,4-32.67,18.55-10.33-2.4-26.2-.05-26.07,14.45.13,15.51,18.63,13.13,27.71,14.61-5.67,7.15,9.94,14.65,15,16.84,8.68,3.74,17.13,3.72,26.07.44-4.28,11.84,20,17.36,21.42,4.63a7,7,0,0,0-3.14.79Z"/><circle class="cls-2" cx="298.63" cy="174.98" r="168.93"/><path class="cls-3" d="M187.13,250.56A168.94,168.94,0,0,1,451.33,111a169,169,0,1,0-254,197.41A168.52,168.52,0,0,1,187.13,250.56Z"/><path class="cls-4" d="M415.47,120.24c-7.92-27.13-32.84-20.7-54.8-31C351.53,85,336.79,77,333.41,66.6c-3-9.1,6.24-19.86-.12-27.06-11-12.44-40.5-19.23-52.73-6.64-6.08,6.27-7,11-17,10.42-8.59-.46-16.37-5.08-24.94-5.29-19.74-.48-36.45,22.86-48.18,36.29-6.72,7.69-12.17,14.37-20.6,20.39-6.2,4.43-13,8.14-17,14.36a42.18,42.18,0,0,0-5.45,31.75v11.33c0,8.88,1.27,16.45,2.85,25.11,2.45,13.37,8.25,20.62,15.12,32.15,10.15,17,16.51,29,37.2,34.78,20.27,5.64,41.13,1,55.17-15.61,14.27-16.84,5.41-27.14-4.69-42.32-8.64-13-14.8-33.85-1.92-46.42,9.21-9,24.7-7.38,24,7-.48,10-3.08,20.43,12,14.21,11.94-4.92,21.12-22,15.17-33.84-6.93-13.74-27.42-20.34-41.57-21.2-17.63-1.07-34.9,7.07-40.86,24.75-4.16,12.33.18,26.06,2.89,38.21,1.68,7.55,5.41,18.45,3.06,26.24-2.73,9-13,14.93-21.63,11.54-23.09-9.08-29.87-46.58-26.48-68,5.44-34.47,52.38-66.94,85.27-69,32.55-2,83.18,32.68,76.54,69.56-2.11,11.71-12.32,21.21-21.16,28.56-11.71,9.72-23.72,10.4-37.26,15.07-10.58,3.65-6.46,13-1.32,21.39,8.43,13.73,26.77,14.68,40.64,9.64,12.22-4.46,16.93-9.61,27.75-.76,7.55,6.18,14.33,16.7,3.42,22.29-14.11,7.23-31.35,5.35-45,15.21-13.82,10-9.29,26.48,5.56,33.39,23.7,11,62.17-6.59,77-25.4,12.87-16.26,12.93-36.79,5.41-55.37-6.7-16.57-18.11-23-34.93-26.42-11.24-2.26-19.62-8-8.35-18.7,5.62-5.35,13.71-5,21-5.33,3.68-.17,9-.79,12.32.78,3.89,1.86,4.86,6.69,8.11,9.08,8.74,6.43,19.27,1.45,24.35-7.48C423.67,143.86,418.82,131.71,415.47,120.24Z"/><path class="cls-5" d="M193.11,271.31c14.89,24,37.18,11.16,61.09,15.19,10,1.68,26.3,5.44,32.33,14.53,5.29,8-.7,20.8,7.35,26,13.92,9.05,44.17,7.7,52.59-7.72,4.19-7.67,3.81-12.42,13.57-14.58,8.41-1.85,17.14.51,25.45-1.58,19.15-4.81,29-31.78,36.71-47.86,4.42-9.21,7.88-17.11,14.39-25.16,4.79-5.92,10.33-11.31,12.56-18.39a42.14,42.14,0,0,0-3.24-32.05l-3-10.92c-2.38-8.55-5.63-15.51-9.47-23.43-5.94-12.23-13.47-17.66-23.17-26.93-14.34-13.71-23.68-23.54-45.15-23.55-21,0-39.89,10.07-49,29.8-9.24,20,2,27.6,15.84,39.53,11.81,10.21,23.32,28.64,14.28,44.21-6.47,11.13-21.82,13.72-25-.34-2.21-9.74-2.5-20.51-15.4-10.47-10.19,7.93-14.46,26.86-5.56,36.66,10.35,11.39,31.86,12.26,45.72,9.3,17.28-3.68,31.74-16.15,32.75-34.78.71-13-7.15-25.06-13-36-3.65-6.82-10.16-16.33-10-24.47.22-9.43,8.55-17.86,17.75-16.9,24.68,2.57,41.25,36.88,43.73,58.46,4,34.67-32.56,78.51-63.7,89.31-30.82,10.68-88.9-9.24-92.36-46.54-1.1-11.85,6.19-23.74,12.75-33.18C282.58,187,294,183.07,305.77,175c9.21-6.34,2.74-14.26-4.46-21-11.79-11-29.72-7-41.73,1.59-10.59,7.56-13.74,13.79-26.54,8.16-8.93-3.93-18.28-12.26-9.26-20.57,11.66-10.74,28.78-13.54,39.25-26.68,10.63-13.36,1.87-28-14.29-30.69-25.8-4.29-58.14,23-67.45,45.1-8,19.11-2.61,38.91,9.61,54.8,10.89,14.17,23.61,17.33,40.73,16.1,11.43-.82,21,2.43,13.05,15.78-4,6.67-11.87,8.49-18.82,10.77-3.5,1.15-8.51,3.18-12.08,2.54-4.24-.75-6.47-5.14-10.24-6.58-10.14-3.86-18.95,3.77-21.46,13.73C178.88,250.75,186.81,261.15,193.11,271.31Z"/><path class="cls-6" d="M219.48,142.79c-4.14-10.56-23.56-19.64-32.35-10.66-1.42-12.4-13.08-20.19-25-21.88-18.43-2.6-34.46,2.7-47.5,14.28-6.66-8.89-13.54-13.35-24.93-12.73-10.14.56-29.41,7.66-31.17,19.39-7.9-7.84-21.8,2.29-24,10.84-2.14,8.33,1,22.33,12.45,20.44-1.49,5.87-5.59,9.75-3.57,17.33,1.84,6.9,6,11.19,12.82,13.63,9.24,3.28,36.61,4.57,40.23-8.22,7.59,6.3,11.91,12.32,22.67,12.92,7,.39,12.23-.21,18.58-3.95,2-1.17,4.78-2.71,6.23-4.49.64-.78,1.49-5.87,1.63-5.94,3.65-1.64,8.45,4.25,12.66,5.14,5.71,1.22,14.06.39,19.69-.78,9.91-2.05,23-11.85,19.17-23.46C209.55,164.86,225.54,158.22,219.48,142.79Z"/><path class="cls-6" d="M354.44,214.86c-1.7-6.18-12.84-16.21-19.48-11.39,2.19-21.9-38.21-23.93-49.88-13.61.21-22.59-51.08-15.55-54.53,2-8.85-5-15.07-8.09-25-2-4.41,2.73-17.88,15.87-9.83,20.41L192,212.61c.29-11-21.61-9.09-24.79.93-3.58,11.27,14.19,26.61,24.63,21.11,8.36,18.16,37.27,15.51,50.6,5.29,4.75,5.61,12.36,11.61,19.81,12.56,4.78.62,10.08-1.19,14.39-3.4,1.87-1,8-7.06,9.81-7.06,3.29,0,5.4,5.57,7.75,7.42,4.34,3.43,8.62,3.89,14,4,9.73.13,28.32-7,26.77-19.54C344.41,234.42,357.3,225.23,354.44,214.86Z"/><path class="cls-6" d="M223.71,100c-1.79-1.86-10.63-2.87-13.44-1.36-5.19,2.8-4,8-3.91,13.19-9-7.91-23.37,2.87-20.58,13.79-7.91-2.63-21.2,4.49-21.79,13.68-.74,11.28,17.24,18.33,24.79,10.68,5.79,17.42,43.43,16.81,44.72-2.85,6.38,10.73,20.38,17.57,32.72,17.91,9,.25,38-12.26,28-25,10.6.17,25.62-5.47,22.45-19.61-3.4-15.13-21-8.91-30.17-8.45,4-8.18-12.8-12.23-18.24-13.3-9.27-1.82-17.53,0-25.58,5.06,1.69-12.48-23.22-12.76-21.92,0a7,7,0,0,0,2.91-1.43Z"/><path class="cls-6" d="M365.33,172.72c-7.55-6.06-14-7.86-22-.52-7.07,6.43-4.07,15.54,6.18,15.22-15.82,11.93,24.67,25.67,28.6,10.77-1,7.2,7.58,14.27,13.85,16.6,8.83,3.29,17.43-1.6,21.92-9.12,6.87,4.66,11.81,12.42,22.81,11.18,10.42-1.17,20.93-7.31,23.73-17.48,3.69,16.3,42.37,8.65,34.43-13.8,6,.15,9.93,3.34,15.91.35,4.47-2.24,9.73-10,9.55-15-.36-9.86-20.1-18-27.36-11.76,4.05-18.6-40.09-20.4-46.07-5.85-3.1-8.27-21.45-8.12-28.58-6.08-8.06,2.3-14.58,8.45-16.68,16.08-4-7.21-15.12-9.71-23.13-8.59-11.34,1.6-13.83,9.86-16.19,19,1.34.59,1.76,0,3-.26Z"/><path class="cls-7" d="M53.66,156.31c-4.17,2.76-7.25-6.43-5.78-9.53,1.65-3.47,9.13-5.54,11.46-1.95C60.8,134.64,75.5,130.26,82.66,137c4.85-7.26,31.66-6.92,27.82,3.09,8.43,3.29,1.77,19.59-7.65,16.31C108.12,171.87,73.45,179,73.6,167.3c-1,6.54-14.83,6.33-19.1,2.9-5.29-4.25-1.37-9.89-.46-14.27Z"/><path class="cls-7" d="M258.85,126.83c-4.78-4.29-10.08-3.77-15.06-.4.08-12.13-22.36-7.33-26.23.37-2.56-5.74-11.05-6.58-13.37-.84-1.72-2.17-4.22-3.64-7.32-1.77-2.54,1.53-2.82,4.33-3.77,7.05-3.2-2.4-15.49-3-15.93,2.74-4.08-3.89-13.58-1.3-18.08.87-3.36,1.62-7.61,8-2.41,10.41-2.89,3.28,1.53,9,4.75,10.4,4.12,1.8,12.93-1.3,14.28-5.65.89,4.74,9.16,4.12,12.57,3.39,3.82-.83,6.16-5.34,9.36-5.71,3.79-.43,6.05,3,10.48.7,3.94-2,6.07-5.86,7.27-9.71,3.07,7.49,8.44-2,11.26-3.65,2.32-1.36,3.07-.56,5.45.39a40.8,40.8,0,0,0,13.53,3.14C252.13,138.87,268.71,135.69,258.85,126.83Z"/><path class="cls-7" d="M306.85,213.4c-.21-3.54-2.58-6.12-5.57-7.88-3.56-2.09-10.95-3.3-13.06,1.4-4.34-11-13-13.55-24.83-12-9,1.2-14.32,2.86-18.23,11.19-3.73-1.46-6.23-4.59-10.87-4.48-4.43.09-6.84,3.09-9.07,6.65-3.54-3.62-9.82-5.68-14.37-2.6-2.53,1.72-4,6.12-2.65,9a9.78,9.78,0,0,0-3,.65,8.51,8.51,0,0,0-4.53,6.75c-.34,5.85,7.93,8.8,9.83,3.7.51,5.18,6.42,7.57,10.94,8.37,7.9,1.41,16-1.77,21.55-7.22,4.92,3.83,7.29,7.89,14.37,8,6.78.09,13.79-2,16-9,2.12,1.05,3.59,3.19,5.68,4.5,3.54,2.23,7.85,2.18,11.9,1.79,5.14-.5,8.92-2.28,11.35-7,1-2,1-4.51,1.94-6.21C305.38,216.72,307.06,216.91,306.85,213.4Z"/><path class="cls-7" d="M434.82,180.7c-4.43-6.69-17.26-6.66-22.08-1-5.22-9.73-17.94-9-22.68.67.4-6-7.71-10.07-12.92-9.26-6.72,1.06-7.87,5.81-11.34,10.17-2.86-2.64-6.21-5.13-10.29-3.53-6.16,2.41-2.61,7.15,2.69,7-2.13,2.45-.65,6.37,1.91,8.15a6.23,6.23,0,0,0,6.3.36,3.06,3.06,0,0,0,.12.48c.94,2.6,1.46,2.38,4.18,2,3.69-.55,6.81-5.56,10.58-5,4.43.64,4.91,7.56,8.33,9.87,6.72,4.54,16.36-3.34,19-9.8,3.67,1.28,5.31,4.79,9.83,5.24,6.51.64,9.33-2.46,13.16-6.77C437.25,194.62,437.06,184.09,434.82,180.7Z"/></g></g></svg>